<mxfile host="app.diagrams.net" modified="2023-10-13T13:08:08.666Z" agent="Mozilla/5.0 (Windows NT 10.0; Win64; x64) AppleWebKit/537.36 (KHTML, like Gecko) Chrome/117.0.0.0 Safari/537.36 Edg/117.0.2045.60" etag="e1qRun6pOSfYHOwzZCAM" version="22.0.4" type="github">
  <diagram name="Page-1" id="ochZL9Btt-ID5b4jNWHC">
    <mxGraphModel dx="746" dy="471" grid="1" gridSize="10" guides="1" tooltips="1" connect="1" arrows="1" fold="1" page="1" pageScale="1" pageWidth="850" pageHeight="1100" math="0" shadow="0">
      <root>
        <mxCell id="0" />
        <mxCell id="1" parent="0" />
        <mxCell id="-QXQ-i_6X8E1-Y3PGMRr-2" value="Pool" style="swimlane;html=1;childLayout=stackLayout;resizeParent=1;resizeParentMax=0;horizontal=0;startSize=20;horizontalStack=0;whiteSpace=wrap;" parent="1" vertex="1">
          <mxGeometry x="110" y="130" width="1050" height="690" as="geometry" />
        </mxCell>
        <mxCell id="-QXQ-i_6X8E1-Y3PGMRr-3" value="Fron End" style="swimlane;html=1;startSize=20;horizontal=0;" parent="-QXQ-i_6X8E1-Y3PGMRr-2" vertex="1">
          <mxGeometry x="20" width="1030" height="120" as="geometry" />
        </mxCell>
        <mxCell id="-QXQ-i_6X8E1-Y3PGMRr-4" value="Discovery" style="swimlane;html=1;startSize=20;horizontal=0;" parent="-QXQ-i_6X8E1-Y3PGMRr-2" vertex="1">
          <mxGeometry x="20" y="120" width="1030" height="120" as="geometry" />
        </mxCell>
        <mxCell id="-QXQ-i_6X8E1-Y3PGMRr-5" value="DB (Setting Tabel)" style="swimlane;html=1;startSize=20;horizontal=0;" parent="-QXQ-i_6X8E1-Y3PGMRr-2" vertex="1">
          <mxGeometry x="20" y="240" width="1030" height="120" as="geometry" />
        </mxCell>
        <mxCell id="-QXQ-i_6X8E1-Y3PGMRr-17" value="Store banner in Setting table" style="points=[[0.25,0,0],[0.5,0,0],[0.75,0,0],[1,0.25,0],[1,0.5,0],[1,0.75,0],[0.75,1,0],[0.5,1,0],[0.25,1,0],[0,0.75,0],[0,0.5,0],[0,0.25,0]];shape=mxgraph.bpmn.task;whiteSpace=wrap;rectStyle=rounded;size=10;html=1;container=1;expand=0;collapsible=0;taskMarker=abstract;" parent="-QXQ-i_6X8E1-Y3PGMRr-5" vertex="1">
          <mxGeometry x="400" y="20" width="120" height="80" as="geometry" />
        </mxCell>
        <mxCell id="-QXQ-i_6X8E1-Y3PGMRr-9" value="Platform Management" style="swimlane;startSize=20;horizontal=0;html=1;whiteSpace=wrap;" parent="-QXQ-i_6X8E1-Y3PGMRr-2" vertex="1">
          <mxGeometry x="20" y="360" width="1030" height="120" as="geometry" />
        </mxCell>
        <mxCell id="-QXQ-i_6X8E1-Y3PGMRr-15" value="Platform Mangement API" style="points=[[0.25,0,0],[0.5,0,0],[0.75,0,0],[1,0.25,0],[1,0.5,0],[1,0.75,0],[0.75,1,0],[0.5,1,0],[0.25,1,0],[0,0.75,0],[0,0.5,0],[0,0.25,0]];shape=mxgraph.bpmn.task;whiteSpace=wrap;rectStyle=rounded;size=10;html=1;container=1;expand=0;collapsible=0;taskMarker=abstract;" parent="-QXQ-i_6X8E1-Y3PGMRr-9" vertex="1">
          <mxGeometry x="400" y="20" width="120" height="80" as="geometry" />
        </mxCell>
        <mxCell id="-QXQ-i_6X8E1-Y3PGMRr-8" value="Platform Management Website" style="swimlane;startSize=20;horizontal=0;html=1;whiteSpace=wrap;" parent="-QXQ-i_6X8E1-Y3PGMRr-2" vertex="1">
          <mxGeometry x="20" y="480" width="1030" height="210" as="geometry" />
        </mxCell>
        <mxCell id="-QXQ-i_6X8E1-Y3PGMRr-10" value="Start" style="points=[[0.145,0.145,0],[0.5,0,0],[0.855,0.145,0],[1,0.5,0],[0.855,0.855,0],[0.5,1,0],[0.145,0.855,0],[0,0.5,0]];shape=mxgraph.bpmn.event;html=1;verticalLabelPosition=bottom;labelBackgroundColor=#ffffff;verticalAlign=top;align=center;perimeter=ellipsePerimeter;outlineConnect=0;aspect=fixed;outline=standard;symbol=general;" parent="-QXQ-i_6X8E1-Y3PGMRr-8" vertex="1">
          <mxGeometry x="70" y="35" width="50" height="50" as="geometry" />
        </mxCell>
        <mxCell id="-QXQ-i_6X8E1-Y3PGMRr-11" value="Create Banner &amp;amp; Publish" style="points=[[0.25,0,0],[0.5,0,0],[0.75,0,0],[1,0.25,0],[1,0.5,0],[1,0.75,0],[0.75,1,0],[0.5,1,0],[0.25,1,0],[0,0.75,0],[0,0.5,0],[0,0.25,0]];shape=mxgraph.bpmn.task;whiteSpace=wrap;rectStyle=rounded;size=10;html=1;container=1;expand=0;collapsible=0;taskMarker=abstract;isLoopStandard=1;" parent="-QXQ-i_6X8E1-Y3PGMRr-8" vertex="1">
          <mxGeometry x="220" y="20" width="120" height="80" as="geometry" />
        </mxCell>
        <mxCell id="-QXQ-i_6X8E1-Y3PGMRr-12" style="edgeStyle=orthogonalEdgeStyle;rounded=0;orthogonalLoop=1;jettySize=auto;html=1;entryX=0;entryY=0.5;entryDx=0;entryDy=0;entryPerimeter=0;" parent="-QXQ-i_6X8E1-Y3PGMRr-8" source="-QXQ-i_6X8E1-Y3PGMRr-10" target="-QXQ-i_6X8E1-Y3PGMRr-11" edge="1">
          <mxGeometry relative="1" as="geometry" />
        </mxCell>
        <mxCell id="-QXQ-i_6X8E1-Y3PGMRr-13" value="Banner Object" style="shape=mxgraph.bpmn.data;labelPosition=center;verticalLabelPosition=bottom;align=center;verticalAlign=top;size=15;html=1;bpmnTransferType=input;" parent="-QXQ-i_6X8E1-Y3PGMRr-8" vertex="1">
          <mxGeometry x="140" y="110" width="40" height="60" as="geometry" />
        </mxCell>
        <mxCell id="-QXQ-i_6X8E1-Y3PGMRr-14" style="edgeStyle=orthogonalEdgeStyle;rounded=0;orthogonalLoop=1;jettySize=auto;html=1;entryX=0.25;entryY=1;entryDx=0;entryDy=0;entryPerimeter=0;dashed=1;dashPattern=8 8;" parent="-QXQ-i_6X8E1-Y3PGMRr-8" source="-QXQ-i_6X8E1-Y3PGMRr-13" target="-QXQ-i_6X8E1-Y3PGMRr-11" edge="1">
          <mxGeometry relative="1" as="geometry" />
        </mxCell>
        <mxCell id="-QXQ-i_6X8E1-Y3PGMRr-20" value="" style="points=[[0.25,0.25,0],[0.5,0,0],[0.75,0.25,0],[1,0.5,0],[0.75,0.75,0],[0.5,1,0],[0.25,0.75,0],[0,0.5,0]];shape=mxgraph.bpmn.gateway2;html=1;verticalLabelPosition=bottom;labelBackgroundColor=#ffffff;verticalAlign=top;align=center;perimeter=rhombusPerimeter;outlineConnect=0;outline=none;symbol=none;gwType=exclusive;" parent="-QXQ-i_6X8E1-Y3PGMRr-8" vertex="1">
          <mxGeometry x="510" y="85" width="50" height="50" as="geometry" />
        </mxCell>
        <mxCell id="-QXQ-i_6X8E1-Y3PGMRr-22" value="Display failure to save banner config" style="points=[[0.25,0,0],[0.5,0,0],[0.75,0,0],[1,0.25,0],[1,0.5,0],[1,0.75,0],[0.75,1,0],[0.5,1,0],[0.25,1,0],[0,0.75,0],[0,0.5,0],[0,0.25,0]];shape=mxgraph.bpmn.task;whiteSpace=wrap;rectStyle=rounded;size=10;html=1;container=1;expand=0;collapsible=0;taskMarker=abstract;" parent="-QXQ-i_6X8E1-Y3PGMRr-8" vertex="1">
          <mxGeometry x="650" y="20" width="120" height="80" as="geometry" />
        </mxCell>
        <mxCell id="-QXQ-i_6X8E1-Y3PGMRr-23" value="Display success on saving or updating banner config" style="points=[[0.25,0,0],[0.5,0,0],[0.75,0,0],[1,0.25,0],[1,0.5,0],[1,0.75,0],[0.75,1,0],[0.5,1,0],[0.25,1,0],[0,0.75,0],[0,0.5,0],[0,0.25,0]];shape=mxgraph.bpmn.task;whiteSpace=wrap;rectStyle=rounded;size=10;html=1;container=1;expand=0;collapsible=0;taskMarker=abstract;" parent="-QXQ-i_6X8E1-Y3PGMRr-8" vertex="1">
          <mxGeometry x="650" y="120" width="120" height="80" as="geometry" />
        </mxCell>
        <mxCell id="-QXQ-i_6X8E1-Y3PGMRr-24" style="edgeStyle=orthogonalEdgeStyle;rounded=0;orthogonalLoop=1;jettySize=auto;html=1;entryX=0;entryY=0.5;entryDx=0;entryDy=0;entryPerimeter=0;exitX=0.5;exitY=0;exitDx=0;exitDy=0;exitPerimeter=0;" parent="-QXQ-i_6X8E1-Y3PGMRr-8" source="-QXQ-i_6X8E1-Y3PGMRr-20" target="-QXQ-i_6X8E1-Y3PGMRr-22" edge="1">
          <mxGeometry relative="1" as="geometry" />
        </mxCell>
        <mxCell id="-QXQ-i_6X8E1-Y3PGMRr-53" value="Failed to load banner config" style="edgeLabel;html=1;align=center;verticalAlign=middle;resizable=0;points=[];" parent="-QXQ-i_6X8E1-Y3PGMRr-24" vertex="1" connectable="0">
          <mxGeometry x="-0.0889" y="-2" relative="1" as="geometry">
            <mxPoint x="-24" y="8" as="offset" />
          </mxGeometry>
        </mxCell>
        <mxCell id="-QXQ-i_6X8E1-Y3PGMRr-25" style="edgeStyle=orthogonalEdgeStyle;rounded=0;orthogonalLoop=1;jettySize=auto;html=1;entryX=0;entryY=0.5;entryDx=0;entryDy=0;entryPerimeter=0;exitX=0.5;exitY=1;exitDx=0;exitDy=0;exitPerimeter=0;" parent="-QXQ-i_6X8E1-Y3PGMRr-8" source="-QXQ-i_6X8E1-Y3PGMRr-20" target="-QXQ-i_6X8E1-Y3PGMRr-23" edge="1">
          <mxGeometry relative="1" as="geometry" />
        </mxCell>
        <mxCell id="-QXQ-i_6X8E1-Y3PGMRr-54" value="Success" style="edgeLabel;html=1;align=center;verticalAlign=middle;resizable=0;points=[];" parent="-QXQ-i_6X8E1-Y3PGMRr-25" vertex="1" connectable="0">
          <mxGeometry x="-0.0311" y="-2" relative="1" as="geometry">
            <mxPoint x="-43" y="-12" as="offset" />
          </mxGeometry>
        </mxCell>
        <mxCell id="-QXQ-i_6X8E1-Y3PGMRr-50" value="End" style="points=[[0.145,0.145,0],[0.5,0,0],[0.855,0.145,0],[1,0.5,0],[0.855,0.855,0],[0.5,1,0],[0.145,0.855,0],[0,0.5,0]];shape=mxgraph.bpmn.event;html=1;verticalLabelPosition=bottom;labelBackgroundColor=#ffffff;verticalAlign=top;align=center;perimeter=ellipsePerimeter;outlineConnect=0;aspect=fixed;outline=end;symbol=terminate2;" parent="-QXQ-i_6X8E1-Y3PGMRr-8" vertex="1">
          <mxGeometry x="860" y="80" width="50" height="50" as="geometry" />
        </mxCell>
        <mxCell id="-QXQ-i_6X8E1-Y3PGMRr-51" style="edgeStyle=orthogonalEdgeStyle;rounded=0;orthogonalLoop=1;jettySize=auto;html=1;entryX=0.5;entryY=0;entryDx=0;entryDy=0;entryPerimeter=0;" parent="-QXQ-i_6X8E1-Y3PGMRr-8" source="-QXQ-i_6X8E1-Y3PGMRr-22" target="-QXQ-i_6X8E1-Y3PGMRr-50" edge="1">
          <mxGeometry relative="1" as="geometry" />
        </mxCell>
        <mxCell id="-QXQ-i_6X8E1-Y3PGMRr-52" style="edgeStyle=orthogonalEdgeStyle;rounded=0;orthogonalLoop=1;jettySize=auto;html=1;entryX=0.5;entryY=1;entryDx=0;entryDy=0;entryPerimeter=0;" parent="-QXQ-i_6X8E1-Y3PGMRr-8" source="-QXQ-i_6X8E1-Y3PGMRr-23" target="-QXQ-i_6X8E1-Y3PGMRr-50" edge="1">
          <mxGeometry relative="1" as="geometry" />
        </mxCell>
        <mxCell id="-QXQ-i_6X8E1-Y3PGMRr-16" style="edgeStyle=orthogonalEdgeStyle;rounded=0;orthogonalLoop=1;jettySize=auto;html=1;entryX=0;entryY=0.5;entryDx=0;entryDy=0;entryPerimeter=0;" parent="-QXQ-i_6X8E1-Y3PGMRr-2" source="-QXQ-i_6X8E1-Y3PGMRr-11" target="-QXQ-i_6X8E1-Y3PGMRr-15" edge="1">
          <mxGeometry relative="1" as="geometry" />
        </mxCell>
        <mxCell id="-QXQ-i_6X8E1-Y3PGMRr-18" style="edgeStyle=orthogonalEdgeStyle;rounded=0;orthogonalLoop=1;jettySize=auto;html=1;entryX=0.25;entryY=1;entryDx=0;entryDy=0;entryPerimeter=0;exitX=0.25;exitY=0;exitDx=0;exitDy=0;exitPerimeter=0;" parent="-QXQ-i_6X8E1-Y3PGMRr-2" source="-QXQ-i_6X8E1-Y3PGMRr-15" target="-QXQ-i_6X8E1-Y3PGMRr-17" edge="1">
          <mxGeometry relative="1" as="geometry" />
        </mxCell>
        <mxCell id="-QXQ-i_6X8E1-Y3PGMRr-19" style="edgeStyle=orthogonalEdgeStyle;rounded=0;orthogonalLoop=1;jettySize=auto;html=1;entryX=0.75;entryY=0;entryDx=0;entryDy=0;entryPerimeter=0;exitX=0.75;exitY=1;exitDx=0;exitDy=0;exitPerimeter=0;" parent="-QXQ-i_6X8E1-Y3PGMRr-2" source="-QXQ-i_6X8E1-Y3PGMRr-17" target="-QXQ-i_6X8E1-Y3PGMRr-15" edge="1">
          <mxGeometry relative="1" as="geometry" />
        </mxCell>
        <mxCell id="-QXQ-i_6X8E1-Y3PGMRr-21" style="edgeStyle=orthogonalEdgeStyle;rounded=0;orthogonalLoop=1;jettySize=auto;html=1;entryX=0;entryY=0.5;entryDx=0;entryDy=0;entryPerimeter=0;" parent="-QXQ-i_6X8E1-Y3PGMRr-2" source="-QXQ-i_6X8E1-Y3PGMRr-15" target="-QXQ-i_6X8E1-Y3PGMRr-20" edge="1">
          <mxGeometry relative="1" as="geometry" />
        </mxCell>
        <mxCell id="-QXQ-i_6X8E1-Y3PGMRr-26" value="Banner" style="swimlane;fontStyle=0;childLayout=stackLayout;horizontal=1;startSize=26;fillColor=none;horizontalStack=0;resizeParent=1;resizeParentMax=0;resizeLast=0;collapsible=1;marginBottom=0;whiteSpace=wrap;html=1;" parent="1" vertex="1">
          <mxGeometry x="155" y="890" width="185" height="312" as="geometry" />
        </mxCell>
        <mxCell id="-QXQ-i_6X8E1-Y3PGMRr-27" value="+ ID : type" style="text;strokeColor=none;fillColor=none;align=left;verticalAlign=top;spacingLeft=4;spacingRight=4;overflow=hidden;rotatable=0;points=[[0,0.5],[1,0.5]];portConstraint=eastwest;whiteSpace=wrap;html=1;" parent="-QXQ-i_6X8E1-Y3PGMRr-26" vertex="1">
          <mxGeometry y="26" width="185" height="26" as="geometry" />
        </mxCell>
        <mxCell id="-QXQ-i_6X8E1-Y3PGMRr-28" value="+ name : type" style="text;strokeColor=none;fillColor=none;align=left;verticalAlign=top;spacingLeft=4;spacingRight=4;overflow=hidden;rotatable=0;points=[[0,0.5],[1,0.5]];portConstraint=eastwest;whiteSpace=wrap;html=1;" parent="-QXQ-i_6X8E1-Y3PGMRr-26" vertex="1">
          <mxGeometry y="52" width="185" height="26" as="geometry" />
        </mxCell>
        <mxCell id="-QXQ-i_6X8E1-Y3PGMRr-31" value="+ description : type" style="text;strokeColor=none;fillColor=none;align=left;verticalAlign=top;spacingLeft=4;spacingRight=4;overflow=hidden;rotatable=0;points=[[0,0.5],[1,0.5]];portConstraint=eastwest;whiteSpace=wrap;html=1;" parent="-QXQ-i_6X8E1-Y3PGMRr-26" vertex="1">
          <mxGeometry y="78" width="185" height="26" as="geometry" />
        </mxCell>
        <mxCell id="-QXQ-i_6X8E1-Y3PGMRr-30" value="+ type : type" style="text;strokeColor=none;fillColor=none;align=left;verticalAlign=top;spacingLeft=4;spacingRight=4;overflow=hidden;rotatable=0;points=[[0,0.5],[1,0.5]];portConstraint=eastwest;whiteSpace=wrap;html=1;" parent="-QXQ-i_6X8E1-Y3PGMRr-26" vertex="1">
          <mxGeometry y="104" width="185" height="26" as="geometry" />
        </mxCell>
        <mxCell id="-QXQ-i_6X8E1-Y3PGMRr-32" value="+ restricted_flow : type" style="text;strokeColor=none;fillColor=none;align=left;verticalAlign=top;spacingLeft=4;spacingRight=4;overflow=hidden;rotatable=0;points=[[0,0.5],[1,0.5]];portConstraint=eastwest;whiteSpace=wrap;html=1;" parent="-QXQ-i_6X8E1-Y3PGMRr-26" vertex="1">
          <mxGeometry y="130" width="185" height="26" as="geometry" />
        </mxCell>
        <mxCell id="-QXQ-i_6X8E1-Y3PGMRr-33" value="+ order_of_display : type" style="text;strokeColor=none;fillColor=none;align=left;verticalAlign=top;spacingLeft=4;spacingRight=4;overflow=hidden;rotatable=0;points=[[0,0.5],[1,0.5]];portConstraint=eastwest;whiteSpace=wrap;html=1;" parent="-QXQ-i_6X8E1-Y3PGMRr-26" vertex="1">
          <mxGeometry y="156" width="185" height="26" as="geometry" />
        </mxCell>
        <mxCell id="-QXQ-i_6X8E1-Y3PGMRr-34" value="+ title : type" style="text;strokeColor=none;fillColor=none;align=left;verticalAlign=top;spacingLeft=4;spacingRight=4;overflow=hidden;rotatable=0;points=[[0,0.5],[1,0.5]];portConstraint=eastwest;whiteSpace=wrap;html=1;" parent="-QXQ-i_6X8E1-Y3PGMRr-26" vertex="1">
          <mxGeometry y="182" width="185" height="26" as="geometry" />
        </mxCell>
        <mxCell id="-QXQ-i_6X8E1-Y3PGMRr-35" value="+ body : type" style="text;strokeColor=none;fillColor=none;align=left;verticalAlign=top;spacingLeft=4;spacingRight=4;overflow=hidden;rotatable=0;points=[[0,0.5],[1,0.5]];portConstraint=eastwest;whiteSpace=wrap;html=1;" parent="-QXQ-i_6X8E1-Y3PGMRr-26" vertex="1">
          <mxGeometry y="208" width="185" height="26" as="geometry" />
        </mxCell>
        <mxCell id="-QXQ-i_6X8E1-Y3PGMRr-36" value="+ image : Image" style="text;strokeColor=none;fillColor=none;align=left;verticalAlign=top;spacingLeft=4;spacingRight=4;overflow=hidden;rotatable=0;points=[[0,0.5],[1,0.5]];portConstraint=eastwest;whiteSpace=wrap;html=1;" parent="-QXQ-i_6X8E1-Y3PGMRr-26" vertex="1">
          <mxGeometry y="234" width="185" height="26" as="geometry" />
        </mxCell>
        <mxCell id="-QXQ-i_6X8E1-Y3PGMRr-29" value="+ body_content_type : type" style="text;strokeColor=none;fillColor=none;align=left;verticalAlign=top;spacingLeft=4;spacingRight=4;overflow=hidden;rotatable=0;points=[[0,0.5],[1,0.5]];portConstraint=eastwest;whiteSpace=wrap;html=1;" parent="-QXQ-i_6X8E1-Y3PGMRr-26" vertex="1">
          <mxGeometry y="260" width="185" height="26" as="geometry" />
        </mxCell>
        <mxCell id="-QXQ-i_6X8E1-Y3PGMRr-37" value="+ action : Action" style="text;strokeColor=none;fillColor=none;align=left;verticalAlign=top;spacingLeft=4;spacingRight=4;overflow=hidden;rotatable=0;points=[[0,0.5],[1,0.5]];portConstraint=eastwest;whiteSpace=wrap;html=1;" parent="-QXQ-i_6X8E1-Y3PGMRr-26" vertex="1">
          <mxGeometry y="286" width="185" height="26" as="geometry" />
        </mxCell>
        <mxCell id="-QXQ-i_6X8E1-Y3PGMRr-39" value="Action" style="swimlane;fontStyle=0;childLayout=stackLayout;horizontal=1;startSize=26;fillColor=none;horizontalStack=0;resizeParent=1;resizeParentMax=0;resizeLast=0;collapsible=1;marginBottom=0;whiteSpace=wrap;html=1;" parent="1" vertex="1">
          <mxGeometry x="400" y="1092" width="140" height="78" as="geometry" />
        </mxCell>
        <mxCell id="-QXQ-i_6X8E1-Y3PGMRr-40" value="+ label : type" style="text;strokeColor=none;fillColor=none;align=left;verticalAlign=top;spacingLeft=4;spacingRight=4;overflow=hidden;rotatable=0;points=[[0,0.5],[1,0.5]];portConstraint=eastwest;whiteSpace=wrap;html=1;" parent="-QXQ-i_6X8E1-Y3PGMRr-39" vertex="1">
          <mxGeometry y="26" width="140" height="26" as="geometry" />
        </mxCell>
        <mxCell id="-QXQ-i_6X8E1-Y3PGMRr-41" value="+ call_to_action : type" style="text;strokeColor=none;fillColor=none;align=left;verticalAlign=top;spacingLeft=4;spacingRight=4;overflow=hidden;rotatable=0;points=[[0,0.5],[1,0.5]];portConstraint=eastwest;whiteSpace=wrap;html=1;" parent="-QXQ-i_6X8E1-Y3PGMRr-39" vertex="1">
          <mxGeometry y="52" width="140" height="26" as="geometry" />
        </mxCell>
        <mxCell id="-QXQ-i_6X8E1-Y3PGMRr-47" style="edgeStyle=orthogonalEdgeStyle;rounded=0;orthogonalLoop=1;jettySize=auto;html=1;exitX=0.5;exitY=0;exitDx=0;exitDy=0;dashed=1;dashPattern=12 12;" parent="1" source="-QXQ-i_6X8E1-Y3PGMRr-43" target="-QXQ-i_6X8E1-Y3PGMRr-36" edge="1">
          <mxGeometry relative="1" as="geometry">
            <Array as="points">
              <mxPoint x="470" y="932" />
              <mxPoint x="360" y="932" />
              <mxPoint x="360" y="1137" />
            </Array>
          </mxGeometry>
        </mxCell>
        <mxCell id="-QXQ-i_6X8E1-Y3PGMRr-43" value="Image" style="swimlane;fontStyle=0;childLayout=stackLayout;horizontal=1;startSize=26;fillColor=none;horizontalStack=0;resizeParent=1;resizeParentMax=0;resizeLast=0;collapsible=1;marginBottom=0;whiteSpace=wrap;html=1;" parent="1" vertex="1">
          <mxGeometry x="400" y="952" width="140" height="104" as="geometry" />
        </mxCell>
        <mxCell id="-QXQ-i_6X8E1-Y3PGMRr-44" value="+ image_name : type" style="text;strokeColor=none;fillColor=none;align=left;verticalAlign=top;spacingLeft=4;spacingRight=4;overflow=hidden;rotatable=0;points=[[0,0.5],[1,0.5]];portConstraint=eastwest;whiteSpace=wrap;html=1;" parent="-QXQ-i_6X8E1-Y3PGMRr-43" vertex="1">
          <mxGeometry y="26" width="140" height="26" as="geometry" />
        </mxCell>
        <mxCell id="-QXQ-i_6X8E1-Y3PGMRr-45" value="+ alt_text: type" style="text;strokeColor=none;fillColor=none;align=left;verticalAlign=top;spacingLeft=4;spacingRight=4;overflow=hidden;rotatable=0;points=[[0,0.5],[1,0.5]];portConstraint=eastwest;whiteSpace=wrap;html=1;" parent="-QXQ-i_6X8E1-Y3PGMRr-43" vertex="1">
          <mxGeometry y="52" width="140" height="26" as="geometry" />
        </mxCell>
        <mxCell id="-QXQ-i_6X8E1-Y3PGMRr-46" value="+ path : type" style="text;strokeColor=none;fillColor=none;align=left;verticalAlign=top;spacingLeft=4;spacingRight=4;overflow=hidden;rotatable=0;points=[[0,0.5],[1,0.5]];portConstraint=eastwest;whiteSpace=wrap;html=1;" parent="-QXQ-i_6X8E1-Y3PGMRr-43" vertex="1">
          <mxGeometry y="78" width="140" height="26" as="geometry" />
        </mxCell>
        <mxCell id="-QXQ-i_6X8E1-Y3PGMRr-49" style="edgeStyle=orthogonalEdgeStyle;rounded=0;orthogonalLoop=1;jettySize=auto;html=1;exitX=0.5;exitY=0;exitDx=0;exitDy=0;dashed=1;dashPattern=8 8;" parent="1" source="-QXQ-i_6X8E1-Y3PGMRr-39" target="-QXQ-i_6X8E1-Y3PGMRr-37" edge="1">
          <mxGeometry relative="1" as="geometry" />
        </mxCell>
      </root>
    </mxGraphModel>
  </diagram>
</mxfile>
